<svg xmlns="http://www.w3.org/2000/svg" width="495" height="508" viewBox="0 0 495 508" fill="none">
    <g width="130" height="140">
        <path d="M399.9 1.10005C386.1 3.30005 375.1 15.8 374.5 30.2001C374.3 36.0001 374.2 36.1001 369.9 38.9001C364.8 42.1001 360.9 46.5001 357.7 52.4001C355.9 55.7001 355.5 58.2001 355.5 65.5001C355.5 73.6001 355.8 75.0001 358.4 79.8001C361.5 85.4001 366.5 90.3001 371.8 93.2001C374.8 94.8001 375 95.3001 375 100.3C375 108.7 377.6 114.7 383.9 121.1C391 128.2 396.9 130.4 407.4 129.8C412.8 129.6 415.9 128.8 419.8 126.8L425 124.1L431.3 127C443 132.6 455.8 130.7 465.4 121.9C471.8 116 475.1 109.1 475.5 100.5C475.8 94.8001 476 94.4001 479.4 92.4001C489.1 86.8001 495 76.8001 495 65.9001C495 62.3001 494.3 57.3 493.4 54.7001C491.5 49.2001 484.2 40.7001 479.2 38.1001C475.7 36.3 475.6 36.1001 475.4 30.1001C474.8 13.4001 461.3 0.600052 444.4 0.600052C438.4 0.600052 436.3 1.10005 430.9 3.70005C424.6 6.90005 424.5 6.90005 421.5 5.10005C415.5 1.40005 407.2 -0.0999451 399.9 1.10005ZM415.6 15.1001C423 19.1001 426.9 19.1001 434.4 15.1001C441.2 11.5001 446.5 11.1001 452.5 13.9001C460.2 17.4001 464 24.1001 464 33.9001C464 38.9001 464.4 40.4001 466.6 43.0001C468.1 44.7001 470.9 46.9001 473 48.0001C487.5 55.4001 487.2 74.8001 472.4 83.1001C465.8 86.9001 464 90.0001 464 97.7001C463.9 107.8 458.6 115.6 450.2 118C444.3 119.6 441.8 119.2 434.3 115.5C430.4 113.6 426.3 112 425.2 112C424.1 112 420.6 113.4 417.4 115.2C412.7 117.7 410.3 118.4 405.3 118.4C400 118.5 398.6 118.1 394.9 115.5C389.1 111.4 386 105.3 386 97.8001C386 90.5001 384.1 86.6001 379.2 84.1001C363 75.8001 362.1 56.6001 377.6 47.9001C384.1 44.2001 386 41.0001 386 33.5001C386 24.1001 389.9 17.4001 397.5 13.9001C403.5 11.1001 408.8 11.5001 415.6 15.1001Z" fill="#89CFF0"></path>
        <path d="M419.6 39.6001C418.3 40.8001 418 43.6001 418 53.8001C418 64.7001 418.3 67.0001 420 69.8001C423.4 75.3001 427.3 77.0001 436.7 77.0001C444.5 77.0001 445 76.9001 446.7 74.4001C448.2 72.0001 448.2 71.5001 446.9 69.1001C445.6 66.8001 444.7 66.4001 438.3 66.0001C434.4 65.7001 430.8 65.1001 430.3 64.7001C429.9 64.2001 429.4 58.6001 429.2 52.2001C428.9 42.8001 428.5 40.3001 427.2 39.2001C425 37.5001 421.5 37.7001 419.6 39.6001Z" fill="#89CFF0"></path>
        <animate xmlns="http://www.w3.org/2000/svg" attributeName="opacity" values="0;0;0;1;1;1" begin="0.4s" dur="4s" repeatCount="indefinite"/>
    </g>
<path d="M187.5 3.10004C144.3 9.40004 104.4 39.3001 84.5 80.5001C73.9 102.4 64.1 134.6 60.5 159.5C58.7 172 58.3 185.9 58.9 227C59.3 252.7 58.2 263.5 53.5 282.4C49.8 297 44.2 310 34.4 327.1C20.4 351.5 11.9 372.2 5.70001 396.5C-3.79999 433.6 -1.49999 455.9 13.5 474.4L18 479.9L16 488.5C12.9 501.8 13.5 505 18.9 505C22.9 505 24 503.7 25.6 497.4C27.9 488.3 24.9 494.7 28.5 497.4C39.3 545.6 66.4 505.8 89.9 504.8C102.1 504.2 108.5 502.1 116.6 496C123.1 491.1 127.6 484.1 129.7 475.5C131.3 469.1 131.3 468.1 129.7 461.1C128.8 456.9 127.8 452.5 127.5 451.3C126.8 449.3 127 449.2 131.1 450.1C133.5 450.7 135.6 451.3 135.8 451.5C136 451.7 135 458 133.5 465.4C132.1 472.9 131.2 479.9 131.5 481C133 485.7 140.1 485.8 141.9 481.2C142.4 479.7 143.9 473.2 145.1 466.8C146.3 460.4 147.6 454.6 148 454.1C148.4 453.3 150.9 453.3 156.1 454C160.2 454.6 171.2 455.3 180.7 455.7L197.9 456.3L198.2 470.7C198.5 483.7 198.7 485.3 200.4 486.6C203.3 488.7 206.7 488.3 208.4 485.8C209.7 484 210 480.6 210 469.8V456H220.3C229.9 456 248 454.7 256.2 453.4L259.8 452.9L261.9 462.2C263 467.3 264.4 474.1 265 477.3C266.2 483.5 268.4 485.6 272.6 484.6C277.1 483.4 277.4 481 274.6 466.6C273.2 459.3 272 452.8 272 452.2C272 451.6 274.6 450.6 277.8 450C280.9 449.4 288.4 447.5 294.4 445.9C300.4 444.3 305.4 443.1 305.6 443.3C305.8 443.4 307.5 449 309.4 455.5C312.8 467.5 315.8 481.1 318 494.8C319.3 502.9 320.8 505 325 505C331.1 505 331.2 499.8 325.9 474.5C322.604 458.56 318.087 442.835 312.5 427.821C309.2 421.321 296 387 296 387C296 386.7 295.2 386.5 296.8 387C298.3 387.5 304.8 389.5 311.2 391.5L323 395.1L327.1 401.2C340.1 420.2 352.4 455.1 358 488.5C359.2 495.6 360.6 502.3 361.2 503.3C362.4 505.6 372.4 505 374 502.5C376.5 498.4 364.6 459 356.1 435L361.2 503.3L385.2 504.1C387 499.5 386 494.5 386 494.5C386 501 384.5 503.7 385.2 504.1C389 504.5 391.4 505.2 392.8 503.8C394.6 502 394.3 498 391 484.2C387.4 469.2 382.1 452.5 377.5 442C375.4 437.2 373.8 431.4 373.1 425.8C370.9 409.1 364.9 392.1 355.5 375.9C342.5 353.7 339.4 345.5 338.1 330.8C337.1 318.4 338.1 304.9 342 281.2C350.9 225.8 351.9 192.3 346 150C338.8 98.5001 327.5 73.5001 298 44.0001C276 21.9001 250.8 8.40004 223.1 3.60004C213.1 1.90004 197.4 1.70004 187.5 3.10004ZM225.7 73.4001C231.6 76.2001 235.4 79.1001 242.4 85.9001C248 91.3001 253.9 96.0001 257.8 98.0001C268 103.4 269.9 107.3 273.6 131.5C274.9 140.3 276.3 148.8 276.7 150.4C277.2 153.1 277.1 153.3 274.9 152.7C262.9 149.4 246.8 149.4 237.2 152.6C231.1 154.6 229.2 157 230.9 160.8C232 163.1 232.4 163.2 237.3 162.7C246.9 161.5 272.6 160.7 276.3 161.4C279.6 162 280.2 162.7 283.5 169.5C285.4 173.6 289.7 180.3 293 184.5L299 192L298.5 200.3C295.2 246.8 284.5 276 263.1 296.7C246.4 312.9 228 323.4 210.3 327.1C202.8 328.6 196 327.5 183.9 322.9C158.4 313.1 131.3 287.3 122.9 264.7C120.7 258.8 120.7 258.5 122.3 252.2C123.2 248.7 126.2 240.3 129 233.5C133.5 222.1 136.7 209.5 138.5 195.8C139 191.9 139.5 191.1 141.7 190.5C144.7 189.8 145.7 190.5 144.2 192.3C140.8 196.3 142.1 207.6 146.3 210.5C149.7 212.8 155.3 212.4 158.4 209.5C160.7 207.4 161 206.4 161 200.2C161 195.2 160.6 192.9 159.5 192C156.8 189.7 158.6 189.8 163.5 192.2L168.2 194.5L170.1 192.1C171.9 189.9 171.9 189.7 170.3 186.9C165.6 178.9 151.3 174.9 141.4 178.7C139.9 179.2 139.8 178.4 140.5 170.9C140.9 166.3 141.6 162.1 142 161.6C142.5 161.1 149.4 161.2 158.5 161.8C167.1 162.4 174.7 162.7 175.5 162.4C177.5 161.6 178.3 158.4 177.1 156.2C175.5 153.2 165.6 150.7 153.8 150.2L143 149.8L143.6 147.1C151 113.5 168.7 84.1 187.3 74.3C199.9 67.8 213.1 67.4001 225.7 73.4001ZM318.8 196.9C319.9 197.5 321.9 199.3 323.3 201C331.2 210.4 328.7 225.9 317.3 238.1C313.4 242.3 312.2 243 308.9 243C304.3 243 304.3 243.2 306.9 230.6C308.9 221.1 310.4 219 315 219C318.4 219 320 217.3 320 213.5C320 209.4 318.4 208 313.8 208H310V201.7C310 198.2 310.3 195.1 310.6 194.8C311.2 194.1 315.8 195.3 318.8 196.9ZM308 255.5C309.7 257.5 308.5 260 306 260C304.9 260 303.7 259.3 303.4 258.5C302.8 257 304.5 254 306 254C306.4 254 307.3 254.7 308 255.5ZM191.2 337.9C195.3 339.1 201 340 204 340C209.6 340 221.1 337.2 228.5 334L232.9 332.1L233.6 337.8C234.5 345.7 238.6 357.6 242.2 363.2C248.7 373.4 260.9 382.1 276.7 387.6L296 387L296.32 401.547L301 430.9C301 432.3 289.9 435.6 275.5 438.5C238.3 445.9 187.4 446.9 147 441C127.4 438.1 123.8 437 122.9 433.7C120.3 424.1 121 407.6 124.6 395L126.1 389.5L135.3 386C150.1 380.3 160.7 372.3 166.4 362.6C169.7 357 173.5 345.1 174.4 337.8L175.1 332.1L179.5 334C181.8 335 187.1 336.8 191.2 337.9Z" fill="black"/>
<path d="M296.32 401.547L301 430.9L287.5 387.225L296.32 401.547Z" fill="black"/>
<path d="M287.5 387.225L296 387L296.32 401.547L287.5 387.225Z" fill="black"/>
<path d="M252.819 186.717C248.719 188.017 245.619 189.817 242.219 193.117C238.619 196.417 238.019 199.817 240.519 201.817C241.819 202.917 242.819 202.817 246.519 201.017C251.419 199.317 250.391 199.537 251.419 199.317C255.419 198.317 255.419 198.317 251.419 199.317C255.419 198.317 256.039 198.216 260.919 198.317C262.539 198.716 264.619 198.317 271.919 200.317C274.919 201.117 278.819 201.517 280.419 201.217C284.319 200.417 287.919 197.017 287.919 194.117C287.919 192.017 287.419 191.817 283.419 191.817C280.819 191.817 277.419 191.117 275.619 190.117C268.519 186.417 258.719 185.017 252.819 186.717Z" fill="black"/>
<path d="M191.3 228C188.2 229.2 187.4 233.4 189.5 236.6C191.7 240.1 198.4 243 204.3 243C215.8 243 224.7 233.1 217.4 228.4C214.9 226.7 214.6 226.8 209.4 229.6L204 232.5L199.1 229.7C196.4 228.2 194 227 193.9 227.1C193.7 227.1 192.5 227.5 191.3 228Z" fill="black"/>
<path d="M190 262C187.5 262.4 182.9 262.6 179.8 262.3C174.4 261.8 174 261.9 173.1 264.1C171.2 269.1 175.5 271.4 190.5 273.2C204.3 274.9 222 273.8 230.5 270.7C234.1 269.4 234.5 269 234.5 265.9V262.5L224.5 262.2C213 261.8 209.9 261.8 205 262.1C203.1 262.2 199.9 262 198 261.7C196.1 261.4 192.5 261.5 190 262Z" fill="black"/>
<path d="M193.3 283.7C191.8 285.9 191.8 286.5 193.1 288.8C195.8 293.7 206.9 295.2 212.8 291.4C215.3 289.8 215.9 283.7 213.8 282.4C213.1 281.9 208.6 281.5 203.7 281.4C195.3 281.2 194.8 281.3 193.3 283.7Z" fill="black"/>
<g>
    <path d="M27.7 50C25.8 51.6 23.7 54.4 23 56C22.3 57.8 20 60.1 17.6 61.5C10.8 65.5 8.5 68.5 8.5 73.5C8.5 78.8 11.1 82.6 16.8 85.8C19.3 87.2 22.1 90 23.9 93C30.4 103.6 40.5 103.7 46.9 93.3C48.6 90.6 52.1 87.1 55.2 85.1C59.2 82.4 60.8 80.5 61.9 77.4C63.2 73.7 63.1 73 61.4 69.4C60.2 67 57.7 64.3 54.5 62.3C51.8 60.5 48.8 57.5 47.8 55.6C43.3 46.8 34.2 44.2 27.7 50ZM38.5 62.8C40.4 66.2 42.6 68.5 46.1 70.5C48.8 72.1 51 73.7 51 74C51 74.3 49 75.6 46.5 76.8C43.3 78.3 41.1 80.4 38.9 84C37.2 86.7 35.5 89 35.1 89C34.7 89 33.4 87 32.2 84.5C30.6 81.1 28.8 79.3 25 77.3C22.3 75.7 20 74.3 20 74C20 73.7 21.5 72.6 23.3 71.6C28.1 68.8 31 65.9 33.1 61.7C34.2 59.7 35.2 58 35.5 58C35.7 58 37.1 60.2 38.5 62.8Z" fill="#ffb273"/>
    <animate xmlns="http://www.w3.org/2000/svg" attributeName="opacity" values="0;0;0;1;1;1" begin="0.4s" dur="2.9s" repeatCount="indefinite"/>
</g>
<g>
    <path d="M390 273.461C388.6 274.161 386.6 276.461 385.6 278.361C384.5 280.361 381.9 282.961 379.9 284.161C376.4 286.061 373 290.961 373 293.961C373 296.961 376.4 301.861 379.9 303.761C381.9 304.961 384.5 307.561 385.6 309.561C390.1 318.061 401 318.061 405.6 309.461C406.7 307.361 409.1 304.961 411.1 303.961C414.4 302.161 418 297.061 418 293.961C418 290.961 414.6 286.061 411.4 284.361C409.4 283.261 406.9 280.761 405.7 278.661C402.2 272.461 395.7 270.261 390 273.461ZM399.7 298.161L395.5 302.461L391.3 298.161L387 293.961L391.3 289.661L395.5 285.461L399.7 289.661L403.9 293.961L399.7 298.161Z" fill="#ffcba4"/>
    <animate xmlns="http://www.w3.org/2000/svg" attributeName="opacity" values="0;0;0;1;1;1" begin="0.4s" dur="2s" repeatCount="indefinite"/>
</g>
<g>
    <path d="M435 191.461C433.6 192.161 431.6 194.461 430.6 196.361C429.5 198.361 426.9 200.961 424.9 202.161C421.4 204.061 418 208.961 418 211.961C418 214.961 421.4 219.861 424.9 221.761C426.9 222.961 429.5 225.561 430.6 227.561C435.1 236.061 446 236.061 450.6 227.461C451.7 225.361 454.1 222.961 456.1 221.961C459.4 220.161 463 215.061 463 211.961C463 208.961 459.6 204.061 456.4 202.361C454.4 201.261 451.9 198.761 450.7 196.661C447.2 190.461 440.7 188.261 435 191.461ZM444.7 216.161L440.5 220.461L436.3 216.161L432 211.961L436.3 207.661L440.5 203.461L444.7 207.661L448.9 211.961L444.7 216.161Z" fill="#ffcba4"/>
    <animate xmlns="http://www.w3.org/2000/svg" attributeName="opacity" values="0;0;0;1;1;1" begin="0.4s" dur="2.4s" repeatCount="indefinite"/>
</g>
</svg>
